<?xml version="1.0" standalone="no"?>
<!DOCTYPE svg PUBLIC "-//W3C//DTD SVG 20010904//EN"
 "http://www.w3.org/TR/2001/REC-SVG-20010904/DTD/svg10.dtd">
<svg version="1.0" xmlns="http://www.w3.org/2000/svg"
 width="64.000000pt" height="64.000000pt" viewBox="0 0 64.000000 64.000000"
 preserveAspectRatio="xMidYMid meet">

<g transform="translate(0.000000,64.000000) scale(0.100000,-0.100000)"
fill="#000000" stroke="none">
<path d="M77 622 c-34 -38 -15 -63 96 -127 l47 -27 -40 -29 c-46 -34 -51 -61
-15 -85 23 -15 27 -15 60 5 20 12 38 21 41 21 2 0 4 -78 4 -174 0 -145 3 -177
16 -190 20 -20 38 -20 58 0 13 13 16 45 16 190 0 96 2 174 4 174 3 0 21 -9 41
-21 33 -20 37 -20 60 -5 36 24 31 51 -15 85 l-39 28 71 44 c81 50 98 70 82 96
-28 44 -61 34 -229 -73 -18 -11 -32 -5 -119 47 -55 32 -105 59 -111 59 -7 0
-19 -8 -28 -18z"/>
</g>
</svg>
